<?xml version="1.0" standalone="no"?>
<!DOCTYPE svg PUBLIC "-//W3C//DTD SVG 20010904//EN"
 "http://www.w3.org/TR/2001/REC-SVG-20010904/DTD/svg10.dtd">
<svg version="1.0" xmlns="http://www.w3.org/2000/svg"
 width="1319.000000pt" height="1319.000000pt" viewBox="0 0 1319.000000 1319.000000"
 preserveAspectRatio="xMidYMid meet">
<metadata>
Created by potrace 1.15, written by Peter Selinger 2001-2017
</metadata>
<g transform="translate(0.000000,1319.000000) scale(0.100000,-0.100000)"
fill="#000000" stroke="none">
<path d="M6320 13179 c-903 -36 -1783 -257 -2595 -653 -539 -263 -984 -555
-1440 -945 -142 -122 -554 -534 -676 -676 -827 -967 -1357 -2123 -1533 -3346
-192 -1329 11 -2650 588 -3834 263 -539 555 -984 945 -1440 122 -142 534 -554
676 -676 881 -754 1902 -1253 3021 -1478 718 -144 1520 -164 2259 -55 1125
166 2193 626 3095 1333 225 177 344 284 591 530 308 309 496 528 716 838 841
1185 1269 2618 1213 4058 -43 1087 -326 2084 -857 3018 -301 530 -657 992
-1109 1438 -533 525 -1068 902 -1749 1235 -698 341 -1440 550 -2235 629 -133
13 -635 37 -695 33 -11 -1 -108 -5 -215 -9z m4090 -3119 c673 -26 763 -57 940
-327 70 -106 112 -228 114 -330 1 -68 -2 -86 -20 -109 -28 -38 -53 -42 -164
-27 -1318 184 -2751 119 -4360 -198 -534 -105 -990 -220 -1697 -426 -29 -9
-53 -19 -53 -22 0 -4 26 -22 58 -40 136 -81 247 -188 290 -280 59 -127 10
-314 -330 -1255 -220 -611 -321 -903 -419 -1214 -221 -705 -324 -1173 -345
-1583 -11 -203 2 -230 82 -169 133 102 178 129 222 136 40 6 48 4 64 -16 50
-62 -2 -299 -122 -549 -80 -166 -177 -310 -270 -404 -131 -131 -218 -151 -357
-82 -172 85 -325 311 -381 560 -33 151 -14 486 49 860 89 531 192 974 469
2020 225 846 449 1799 429 1820 -3 3 -75 -19 -160 -49 -746 -262 -1512 -602
-2269 -1006 -245 -131 -245 -131 -304 -127 -53 3 -62 7 -87 37 -100 120 -86
393 34 640 21 44 55 89 107 141 63 63 103 91 250 174 1109 626 2577 1139 4134
1445 1420 278 2977 423 4096 380z m-1749 -2994 c97 -21 165 -54 202 -97 38
-44 97 -198 123 -319 20 -98 23 -323 5 -457 -15 -117 -41 -172 -117 -243 -227
-212 -637 -225 -694 -22 -5 20 -10 81 -10 135 0 152 -43 319 -97 379 -49 54
-166 -13 -290 -166 -362 -448 -791 -1400 -869 -1931 -21 -141 -16 -249 15
-298 30 -49 71 -61 179 -52 268 21 595 127 977 315 329 162 840 485 1134 716
221 175 218 172 289 206 53 26 67 29 88 19 53 -24 19 -131 -97 -304 -368 -548
-964 -1094 -1481 -1358 -395 -201 -688 -230 -1025 -99 -305 117 -616 399 -764
692 -79 156 -102 305 -80 513 43 399 172 740 426 1125 167 252 411 521 640
704 225 180 590 408 752 470 78 30 232 68 318 79 80 10 315 6 376 -7z"/>
</g>
</svg>
